<?xml version="1.0" encoding="UTF-8"?><svg xmlns="http://www.w3.org/2000/svg" viewBox="0 0 644.26 654.21"><defs><style>.cls-1{fill:#2b3339;}.cls-1,.cls-2,.cls-3,.cls-4,.cls-5{stroke-width:0px;}.cls-2{fill:#323a3f;}.cls-3{fill:#859baa;}.cls-4{fill:#fff;}.cls-5{fill:#f6f7f7;}</style></defs><g id="Layer_2"><path class="cls-4" d="M64.24,584.87c3.03,3.89,4.54,8.33,4.54,13.33,0,7.21-2.52,12.92-7.55,17.13-5.04,4.22-12.06,6.33-21.07,6.33H0v-86.23h38.82c8.76,0,15.62,2.01,20.57,6.02,4.95,4.01,7.43,9.46,7.43,16.34,0,5.08-1.33,9.29-3.99,12.65-2.66,3.36-6.2,5.69-10.63,7,4.99,1.07,9.01,3.54,12.04,7.43ZM21,570.32h13.76c3.44,0,6.08-.76,7.92-2.27,1.84-1.51,2.76-3.75,2.76-6.69s-.92-5.2-2.76-6.76c-1.84-1.55-4.48-2.33-7.92-2.33h-13.76v18.06ZM44.65,602.32c1.92-1.6,2.89-3.91,2.89-6.94s-1-5.41-3.01-7.12c-2.01-1.72-4.77-2.58-8.29-2.58h-15.23v19.04h15.48c3.52,0,6.24-.8,8.17-2.4Z"/><path class="cls-4" d="M75.6,542.74c-2.33-2.17-3.5-4.85-3.5-8.05s1.17-6,3.5-8.17c2.33-2.17,5.34-3.25,9.03-3.25s6.57,1.09,8.91,3.25c2.33,2.17,3.5,4.89,3.5,8.17s-1.17,5.88-3.5,8.05c-2.33,2.17-5.3,3.25-8.91,3.25s-6.69-1.08-9.03-3.25ZM95.07,553.12v68.54h-21v-68.54h21Z"/><path class="cls-4" d="M164.41,560.18c4.79,5.2,7.19,12.34,7.19,21.43v40.04h-20.88v-37.22c0-4.58-1.19-8.15-3.56-10.69-2.38-2.54-5.57-3.81-9.58-3.81s-7.21,1.27-9.58,3.81c-2.38,2.54-3.56,6.1-3.56,10.69v37.22h-21v-68.54h21v9.09c2.13-3.03,4.99-5.42,8.6-7.19,3.6-1.76,7.66-2.64,12.16-2.64,8.02,0,14.43,2.6,19.22,7.8Z"/><path class="cls-4" d="M260.29,535.43l-30.59,86.23h-26.29l-30.59-86.23h22.36l21.37,65.1,21.5-65.1h22.23Z"/><path class="cls-4" d="M326.37,592.43h-47.54c.33,4.26,1.7,7.51,4.11,9.76,2.41,2.25,5.38,3.38,8.91,3.38,5.24,0,8.88-2.21,10.93-6.63h22.36c-1.15,4.5-3.21,8.56-6.2,12.16-2.99,3.6-6.74,6.43-11.24,8.48-4.5,2.05-9.54,3.07-15.11,3.07-6.72,0-12.69-1.43-17.93-4.3-5.24-2.87-9.34-6.96-12.28-12.28-2.95-5.32-4.42-11.55-4.42-18.67s1.45-13.35,4.36-18.67c2.91-5.32,6.98-9.42,12.22-12.28,5.24-2.87,11.26-4.3,18.06-4.3s12.53,1.39,17.69,4.18c5.16,2.78,9.19,6.76,12.1,11.92,2.9,5.16,4.36,11.18,4.36,18.06,0,1.96-.12,4.01-.37,6.14ZM305.24,580.76c0-3.6-1.23-6.47-3.69-8.6-2.46-2.13-5.53-3.19-9.21-3.19s-6.49,1.03-8.91,3.07c-2.42,2.05-3.91,4.96-4.48,8.72h26.29Z"/><path class="cls-4" d="M391.9,560.18c4.79,5.2,7.19,12.34,7.19,21.43v40.04h-20.88v-37.22c0-4.58-1.19-8.15-3.56-10.69-2.38-2.54-5.57-3.81-9.58-3.81s-7.21,1.27-9.58,3.81c-2.38,2.54-3.56,6.1-3.56,10.69v37.22h-21v-68.54h21v9.09c2.13-3.03,4.99-5.42,8.6-7.19,3.6-1.76,7.66-2.64,12.16-2.64,8.02,0,14.43,2.6,19.22,7.8Z"/><path class="cls-4" d="M445.03,603.85v17.81h-10.69c-7.62,0-13.55-1.86-17.81-5.59-4.26-3.73-6.39-9.81-6.39-18.24v-27.27h-8.35v-17.44h8.35v-16.71h21v16.71h13.76v17.44h-13.76v27.52c0,2.05.49,3.52,1.47,4.42.98.9,2.62,1.35,4.91,1.35h7.49Z"/><path class="cls-4" d="M462.9,618.35c-5.36-2.87-9.58-6.96-12.65-12.28-3.07-5.32-4.61-11.55-4.61-18.67s1.55-13.25,4.67-18.61c3.11-5.36,7.37-9.48,12.77-12.34,5.4-2.87,11.46-4.3,18.18-4.3s12.77,1.43,18.18,4.3c5.4,2.87,9.66,6.98,12.77,12.34,3.11,5.36,4.67,11.57,4.67,18.61s-1.58,13.25-4.73,18.61c-3.15,5.36-7.45,9.48-12.9,12.34-5.45,2.87-11.53,4.3-18.24,4.3s-12.75-1.43-18.12-4.3ZM491.27,600.04c2.83-2.95,4.24-7.16,4.24-12.65s-1.37-9.7-4.12-12.65c-2.75-2.95-6.12-4.42-10.13-4.42s-7.49,1.46-10.2,4.36c-2.7,2.91-4.05,7.15-4.05,12.71s1.33,9.7,3.99,12.65c2.66,2.95,6,4.42,10.01,4.42s7.43-1.47,10.26-4.42Z"/><path class="cls-4" d="M551.4,555.64c3.68-2.17,7.78-3.25,12.28-3.25v22.23h-5.77c-5.24,0-9.17,1.13-11.79,3.38-2.62,2.25-3.93,6.2-3.93,11.85v31.81h-21v-68.54h21v11.42c2.46-3.77,5.53-6.73,9.21-8.91Z"/><path class="cls-4" d="M644.26,553.12l-42.99,101.09h-22.6l15.72-34.88-27.88-66.21h23.46l15.85,42.87,15.72-42.87h22.72Z"/></g><g id="Layer_1"><path class="cls-4" d="M315.27,493.75c-40.57-1.9-82.59-11.74-121.19-34.07-12.39-7.17-24.71-14.48-36.11-23.21-15.19-11.64-28.12-25.59-39.88-40.52-25.26-32.07-41.83-68.35-48.56-108.58-5.56-33.24-5.21-66.56,2.99-99.62,3.59-14.48,7.84-28.73,14.08-42.16,8.33-17.95,18.95-34.62,31.34-50.15,7.17-8.98,14.59-17.78,22.94-25.57,10.82-10.09,22.1-19.77,34.7-27.7C208.62,21.35,244.14,7.6,283.16,2.91c13.71-1.65,27.36-3.4,41.14-2.79,40.05,1.79,78.25,10.44,114.07,29.34,28.85,15.22,53.69,35.31,74.49,59.97,18.15,21.52,32.49,45.66,42.36,72.38,10.92,29.58,16.47,59.86,15.61,91.38-1.01,37.02-10.12,71.76-27.83,104.39-12.65,23.3-27.65,44.7-46.8,63.1-33.69,32.37-73.11,54.19-118.51,65.6-19.39,4.87-38.99,6.44-62.42,7.47ZM321.62,474.6c26.5-.21,52.15-5.04,76.99-14.49,25.67-9.76,50.33-21.55,70.59-40.33,27.76-25.72,51.01-54.88,65.67-90.42,10.83-26.27,16.48-53.37,17.04-81.64.16-8.02-1.4-15.97-1.82-23.93-.59-11.24-2.65-22.19-5.63-32.84-18.41-65.82-58.22-114.44-118.65-146.3-25.05-13.2-51.98-20.7-79.74-24.35-31.55-4.15-62.82-.03-93.36,8.51-51.93,14.51-94.17,42.99-125.39,87.5-32.2,45.91-47.99,96.46-42.02,152.46,6.8,63.68,37.13,115.71,87.04,154.55,43.24,33.66,93.53,51.53,149.26,51.26Z"/><path class="cls-1" d="M321.62,474.6c-55.73.26-106.01-17.61-149.26-51.26-49.91-38.84-80.25-90.87-87.04-154.55-5.98-56,9.82-106.55,42.02-152.46,31.22-44.51,73.46-72.99,125.39-87.5,30.53-8.53,61.81-12.66,93.36-8.51,27.76,3.65,54.69,11.15,79.74,24.35,60.43,31.86,100.24,80.48,118.65,146.3,2.98,10.65,5.04,21.59,5.63,32.84.42,7.96,1.98,15.91,1.82,23.93-.56,28.27-6.21,55.37-17.04,81.64-14.66,35.54-37.91,64.7-65.67,90.42-20.26,18.78-44.92,30.56-70.59,40.33-24.84,9.45-50.49,14.27-76.99,14.49ZM422.57,175.16c15.83,1.19,31.65.96,47.48-.09,1.83-.03,3.67-.02,5.5-.1,7.58-.34,10.11-2.6,10.89-10.07.93-8.95,1.29-17.95,1.2-26.95-.11-12.29-7.96-20.42-20.19-20.62-6.15-.1-12.31.61-18.47.62-76.97.05-153.95-.06-230.92.13-17.65.04-35.29-1.83-52.94-.18-10.53.98-16.65,7.41-16.89,17.87-.22,9.47-.1,18.95-.16,28.42-.04,6.31,4.73,11.35,11.12,11.35,11.99,0,23.98-.17,35.98-.26,75.8-.59,151.61-.39,227.41-.13ZM317.87,191.92c0-.19,0-.38,0-.58-46.48,0-92.96.02-139.44-.06-2.32,0-3.05.24-3.1,2.86-.63,33.47-1.07,66.94-.67,100.42.22,18.66-.26,37.33.36,55.97.74,22.26,16.57,39.22,39.7,38.67,43.46-1.05,86.95-.72,130.43-.5,26.49.13,52.97.43,79.46.09,7.77-.1,15.04-1.59,21.54-6.51,10.43-7.9,14.47-18.81,15.41-31.15.53-6.95.12-13.99.02-20.98-.6-44.64.52-89.28-.62-133.92-.11-4.17-1.02-5.29-5.18-5.06-9.64.53-19.31.69-28.97.71-36.31.07-72.63.03-108.94.03ZM469.56,99.91c.21-.41.42-.82.62-1.23-4.98-4.08-9.93-8.19-14.95-12.21-2.58-2.07-5.59-2.54-8.88-2.57-85.9-.81-171.81,1.74-257.71-.91-1.47-.05-3.09-.44-4.34.64-4.77,4.12-9.51,8.29-14.2,12.51-.55.5-1.14,1.46-1.03,2.09.22,1.33,1.54.89,2.46.92,8.15.28,16.3.73,24.46.74,87.25.05,174.5.02,261.75.02,3.94,0,7.88,0,11.82,0ZM212.04,65.76h213.37c-62.17-39.52-168.13-29.4-213.37,0ZM460.68,402.3c-3.51-.97-5.1-.28-6.62.27-9.54,3.47-19.49,4.29-29.5,4.32-33.14.11-66.28.13-99.42.09-29.3-.04-58.61-.22-87.91-.29-17.28-.04-34.64,1.74-51.71-2.62-1.62-.41-3.43-.05-5.15-.05,7.32,6.84,14.67,13.23,23.34,17.77,2.35,1.23,5.16,1.1,7.85.98,13.63-.61,27.27-1.59,40.9-1.66,46.63-.23,93.25-.14,139.88-.15,9.83,0,19.64.54,29.31,2.52,2.85.58,5.61.29,8.39-.43,12.38-3.2,19.43-13.84,30.65-20.74ZM242.84,440.27c12.05,6.74,25.02,10.65,38.47,12.65,21.49,3.21,43.18,2.4,64.78,1.82,16.6-.44,32.26-5.17,47.7-14.09-50.91-3.07-100.87-3.47-150.94-.38ZM124.49,215.07c-5.21-.58-9.75.45-14.35.8-3.91.3-6.22,3.23-5.97,8.27.23,4.79,3.83,2.53,6,2.51,14.18-.16,27.95-3.61,41.93-5.41,2.48-.32,2.94-1.34,2.91-3.51-.07-5.15.02-10.3.12-15.46.04-1.82-.42-2.48-2.38-3.42-8.37-4-16.22-8.73-20.52-17.72-3.07-6.4-3.45-13.01-3.26-19.89.08-2.76,1.96-7.03-.83-7.99-2.15-.74-3.33,3.87-4.74,6.2-6.44,10.63-9.65,22.58-13.56,34.22-2.6,7.74-1.84,8.97,6.1,10.25,4.25.69,6.67,2.51,7.01,6.93.08,1.08.74,2.11,1.53,4.21ZM507.59,151.73c0,5.83-.18,10.43.03,15.01.63,13.62-5.67,24.05-17.14,29.74-7.97,3.95-9.23,8.99-8.56,16.27.06.66.09,1.35-.02,1.99-.56,3.27.68,4.3,4.04,4.18,10.48-.37,20.98-.14,31.44-.72,3.86-.21,9.08,2.8,11.33-1.19,1.96-3.48.59-8.46-.11-12.75-.03-.16-.11-.32-.14-.48-2.93-14.64-8.57-28.39-14.12-42.15-1.28-3.18-2.71-6.45-6.76-9.91ZM512.81,335.36c-.11-3.13-2.11-2.49-3.35-2.54-7.65-.31-15.31-.31-22.96-.74-4.44-.25-5.91,1.14-5.88,5.83.09,14.72.63,29.6-7.4,42.98-.95,1.58-3.22,3.96-1.6,5.2,2.11,1.62,4.05-1.07,5.81-2.48.26-.21.47-.47.72-.69,12.32-10.97,21.44-24.49,30.28-38.21,1.96-3.04,3.11-6.59,4.38-9.35ZM164.86,386.11c.6-1.82-.41-2.87-1.01-3.95-5.12-9.13-8.46-18.62-8.4-29.36.03-5.61-.33-11.29-.35-16.93,0-2.56-.4-3.95-3.5-3.88-8.31.2-16.64.06-24.96.09-3.54.01-4.97,1.24-3.12,4.91,6.31,12.53,14.73,23.68,22.89,34.97,2.78,3.85,6.7,6.92,10.25,10.17,2.29,2.09,4.86,3.88,8.19,3.97ZM129.3,264.57c0-.15,0-.31,0-.46-3.49,0-6.98-.03-10.47,0-3.49.04-6.98.16-10.47.23q-6.62.12-5.56,6.36c.31,1.8.77,3.57,1.07,5.36.56,3.44,2.01,5.02,5.98,4.64,11.26-1.07,22.58-.67,33.88-.41,11.81.28,12.15-.22,11.73-12.06-.1-2.75-.86-3.79-3.72-3.73-7.48.16-14.96.06-22.44.06ZM505.6,280c0,.36,0,.72,0,1.08,5,0,9.99-.08,14.99.02,10.31.19,10.61-.05,11.26-10.34.03-.5-.07-1.02.05-1.49.76-3.11-.67-4-3.59-4.08-11.98-.34-23.92-1.58-35.94-1.12-12.09.46-12.02.29-11.59,12.48.09,2.55.73,3.55,3.37,3.51,7.15-.12,14.3-.04,21.46-.04ZM134.91,297.93c0,.1,0,.2,0,.29-5.15,0-10.31-.2-15.45.04-11.05.53-10.82.54-7.05,10.77,1.6,4.33,4.01,5.85,8.48,5.7,7.3-.24,14.63.31,21.93,0,14.97-.64,11.4,2.25,12.24-13.16.16-2.83-.87-3.79-3.69-3.7-5.48.17-10.97.05-16.45.05ZM503.97,298.03c-4.15,0-8.31-.17-12.46.03-12.79.62-10.28-2.39-10.65,11.4-.06,2.43.63,3.63,3.33,3.67,11.46.18,22.91.5,34.36.8,1.78.05,3.23-.11,3.82-2.22.94-3.35,2.08-6.65,3.11-9.98.86-2.78-.03-3.87-3.08-3.78-6.14.19-12.29.06-18.44.06ZM125.83,238.21c-5.62.65-11.39,1.55-17.19,1.9-3.68.22-5.99,1.03-6.13,5.3-.14,4.26,2.62,4.81,5.72,5.35,14.21,2.47,28.43.81,42.65.24,3.05-.12,3.53-1.92,3.14-4.38-.39-2.47,1.54-6.13-3.11-6.5-8.29-.67-16.58-1.27-25.08-1.91ZM507.27,239.43c-7.39-1.41-14.51.68-21.77,1.38-4,.38-3.22,3.35-3.39,5.94-.18,2.64,1.29,3.05,3.38,2.98,14.61-.53,29.22-1.05,43.84-1.58,3.73-.13,3.34-2.86,3.47-5.39.14-2.71-1.19-3.4-3.63-3.37-7.3.09-14.59.03-21.89.03Z"/><path class="cls-4" d="M317.87,191.92c36.31,0,72.63.04,108.94-.03,9.66-.02,19.33-.18,28.97-.71,4.16-.23,5.08.89,5.18,5.06,1.14,44.64.02,89.28.62,133.92.09,7,.51,14.03-.02,20.98-.94,12.33-4.98,23.25-15.41,31.15-6.5,4.92-13.77,6.41-21.54,6.51-26.49.34-52.97.04-79.46-.09-43.48-.22-86.97-.54-130.43.5-23.13.56-38.96-16.41-39.7-38.67-.62-18.64-.14-37.31-.36-55.97-.4-33.48.04-66.95.67-100.42.05-2.63.78-2.87,3.1-2.86,46.48.08,92.96.06,139.44.06,0,.19,0,.38,0,.58ZM287.76,204.87c-1.78.35-3.66.47-5.34,1.09-13.67,5.07-22.31,16.02-18.62,29.9,3.05,11.46,13.33,18.82,27.27,18.97,20.3.22,40.61.3,60.92.34,12.6.02,24.65-15.71,22.61-28.26-2.1-12.92-15.75-22.08-26.58-22-7.32.06-14.65-.09-21.97-.15-.78-.81-1.56-.83-2.36-.03-.54,0-1.07,0-1.61-.01-11.45-1.46-22.89-.62-34.33.15ZM318.35,369.32c15.31,0,30.62-.2,45.92.05,18.73.31,30.49-17.44,30.57-31.21.07-12.48.21-24.97.04-37.45-.19-14.49-11.79-25.97-26.2-26.79-29.61-1.69-59.24-.64-88.85-.79-6.13-.03-12.33.3-18.31,1.86-9.98,2.59-19.56,13-19.62,21.45-.09,14.48-.21,28.97.16,43.44.42,16.37,13.08,28.6,29.37,29.25,15.63.63,31.27,1.11,46.92.19ZM209.17,233.16c-.04-4.39-3.92-8.38-8.15-8.37-3.72,0-7.69,4.21-7.81,8.28-.12,4.32,4.3,9.17,8.24,9.02,3.91-.14,7.76-4.59,7.72-8.93ZM208.94,262.36c-.03-3.63-4.01-7.42-7.9-7.51-4.06-.1-8.04,3.89-7.91,7.94.12,4.04,4.49,9.11,7.86,9.12,3.53,0,7.99-5.35,7.96-9.55ZM208.09,293.33c.06-3.53-3.95-7.35-7.88-7.49-3.58-.13-7.21,3.43-7.34,7.22-.13,3.63,3.95,8.03,7.37,7.96,3.59-.08,7.79-4.19,7.85-7.68Z"/><path class="cls-4" d="M422.57,175.16c-75.8-.26-151.61-.47-227.41.13-11.99.09-23.98.27-35.98.26-6.39,0-11.16-5.05-11.12-11.35.06-9.47-.06-18.95.16-28.42.25-10.46,6.37-16.89,16.89-17.87,17.64-1.65,35.29.22,52.94.18,76.97-.19,153.95-.07,230.92-.13,6.16,0,12.32-.71,18.47-.62,12.23.19,20.08,8.33,20.19,20.62.08,9-.27,17.99-1.2,26.95-.78,7.47-3.31,9.73-10.89,10.07-1.83.08-3.66.07-5.5.1-15.83-.43-31.65-.44-47.48.09ZM458.16,132.29c-4.34-.01-8.27,3.9-8.3,8.29-.04,4.97,4.46,9.65,9.42,9.77,4.49.11,8.96-4.68,8.9-9.56-.05-4.5-4.75-8.48-10.02-8.49ZM167.83,141.67c-.02,4.81,4.19,8.56,9.56,8.51,4.25-.04,8.78-5.07,8.86-9.83.07-4.47-3.36-7.48-8.64-7.57-5.75-.1-9.76,3.54-9.78,8.88Z"/><path class="cls-2" d="M469.56,99.91c-3.94,0-7.88,0-11.82,0-87.25,0-174.5.03-261.75-.02-8.15,0-16.31-.46-24.46-.74-.91-.03-2.23.4-2.46-.92-.11-.63.48-1.59,1.03-2.09,4.69-4.22,9.43-8.38,14.2-12.51,1.25-1.08,2.86-.68,4.34-.64,85.89,2.65,171.81.09,257.71.91,3.3.03,6.31.5,8.88,2.57,5.02,4.03,9.97,8.14,14.95,12.21-.21.41-.42.82-.62,1.23Z"/><path class="cls-2" d="M212.04,65.76c45.24-29.4,151.2-39.52,213.37,0h-213.37Z"/><path class="cls-2" d="M460.68,402.3c-11.21,6.9-18.27,17.54-30.65,20.74-2.78.72-5.54,1.01-8.39.43-9.67-1.98-19.47-2.52-29.31-2.52-46.63,0-93.25-.08-139.88.15-13.64.07-27.27,1.04-40.9,1.66-2.7.12-5.51.25-7.85-.98-8.67-4.54-16.02-10.92-23.34-17.77,1.72,0,3.54-.36,5.15.05,17.07,4.36,34.43,2.58,51.71,2.62,29.3.07,58.61.26,87.91.29,33.14.04,66.28.02,99.42-.09,10.01-.03,19.96-.86,29.5-4.32,1.52-.55,3.1-1.24,6.62-.27Z"/><path class="cls-2" d="M242.84,440.27c50.08-3.09,100.03-2.69,150.94.38-15.43,8.92-31.09,13.65-47.7,14.09-21.6.58-43.29,1.38-64.78-1.82-13.45-2.01-26.42-5.91-38.47-12.65Z"/><path class="cls-2" d="M124.49,215.07c-.79-2.1-1.45-3.13-1.53-4.21-.34-4.41-2.76-6.24-7.01-6.93-7.94-1.28-8.7-2.52-6.1-10.25,3.91-11.64,7.12-23.58,13.56-34.22,1.41-2.33,2.59-6.94,4.74-6.2,2.79.96.91,5.23.83,7.99-.19,6.88.19,13.49,3.26,19.89,4.3,8.98,12.15,13.72,20.52,17.72,1.96.94,2.42,1.6,2.38,3.42-.1,5.15-.19,10.31-.12,15.46.03,2.17-.43,3.19-2.91,3.51-13.98,1.8-27.75,5.25-41.93,5.41-2.17.02-5.77,2.28-6-2.51-.24-5.04,2.06-7.97,5.97-8.27,4.6-.35,9.14-1.38,14.35-.8Z"/><path class="cls-2" d="M507.59,151.73c4.05,3.46,5.48,6.73,6.76,9.91,5.54,13.76,11.18,27.51,14.12,42.15.03.16.12.32.14.48.69,4.29,2.07,9.27.11,12.75-2.25,3.98-7.47.97-11.33,1.19-10.46.58-20.96.35-31.44.72-3.36.12-4.6-.91-4.04-4.18.11-.65.08-1.33.02-1.99-.67-7.27.59-12.31,8.56-16.27,11.47-5.69,17.77-16.12,17.14-29.74-.21-4.58-.03-9.18-.03-15.01Z"/><path class="cls-2" d="M512.81,335.36c-1.27,2.77-2.43,6.32-4.38,9.35-8.83,13.72-17.96,27.24-30.28,38.21-.25.22-.46.49-.72.69-1.76,1.41-3.69,4.1-5.81,2.48-1.62-1.24.65-3.62,1.6-5.2,8.03-13.38,7.5-28.27,7.4-42.98-.03-4.69,1.44-6.08,5.88-5.83,7.64.42,15.31.43,22.96.74,1.24.05,3.24-.59,3.35,2.54Z"/><path class="cls-2" d="M164.86,386.11c-3.32-.09-5.9-1.88-8.19-3.97-3.56-3.25-7.47-6.32-10.25-10.17-8.16-11.29-16.58-22.45-22.89-34.97-1.85-3.67-.42-4.9,3.12-4.91,8.32-.03,16.64.11,24.96-.09,3.1-.08,3.5,1.31,3.5,3.88.02,5.65.38,11.32.35,16.93-.06,10.74,3.28,20.23,8.4,29.36.6,1.08,1.61,2.13,1.01,3.95Z"/><path class="cls-2" d="M129.3,264.57c7.48,0,14.96.11,22.44-.06,2.86-.06,3.63.98,3.72,3.73.42,11.83.08,12.33-11.73,12.06-11.3-.27-22.62-.67-33.88.41-3.97.38-5.43-1.2-5.98-4.64-.29-1.8-.76-3.57-1.07-5.36q-1.07-6.24,5.56-6.36c3.49-.06,6.98-.19,10.47-.23,3.49-.04,6.98,0,10.47,0,0,.15,0,.31,0,.46Z"/><path class="cls-2" d="M505.6,280c-7.15,0-14.31-.08-21.46.04-2.64.05-3.28-.96-3.37-3.51-.43-12.19-.5-12.02,11.59-12.48,12.02-.46,23.96.79,35.94,1.12,2.92.08,4.36.97,3.59,4.08-.12.47-.02,1-.05,1.49-.64,10.29-.95,10.54-11.26,10.34-4.99-.09-9.99-.02-14.99-.02,0-.36,0-.72,0-1.08Z"/><path class="cls-2" d="M134.91,297.93c5.48,0,10.97.12,16.45-.05,2.82-.09,3.85.87,3.69,3.7-.84,15.41,2.73,12.52-12.24,13.16-7.3.31-14.63-.24-21.93,0-4.47.15-6.88-1.37-8.48-5.7-3.77-10.22-3.99-10.24,7.05-10.77,5.14-.25,10.3-.04,15.45-.04,0-.1,0-.2,0-.29Z"/><path class="cls-2" d="M503.97,298.03c6.15,0,12.3.13,18.44-.06,3.05-.1,3.93,1,3.08,3.78-1.03,3.33-2.17,6.62-3.11,9.98-.59,2.11-2.04,2.26-3.82,2.22-11.45-.3-22.91-.63-34.36-.8-2.7-.04-3.39-1.25-3.33-3.67.37-13.79-2.14-10.78,10.65-11.4,4.14-.2,8.3-.03,12.46-.03Z"/><path class="cls-2" d="M125.83,238.21c8.5.64,16.8,1.24,25.08,1.91,4.65.38,2.72,4.03,3.11,6.5.39,2.46-.09,4.25-3.14,4.38-14.22.58-28.44,2.23-42.65-.24-3.1-.54-5.86-1.09-5.72-5.35.14-4.27,2.44-5.07,6.13-5.3,5.8-.35,11.57-1.25,17.19-1.9Z"/><path class="cls-2" d="M507.27,239.43c7.3,0,14.6.06,21.89-.03,2.44-.03,3.78.66,3.63,3.37-.13,2.53.25,5.25-3.47,5.39-14.61.53-29.22,1.05-43.84,1.58-2.08.08-3.56-.34-3.38-2.98.18-2.59-.61-5.56,3.39-5.94,7.26-.7,14.38-2.79,21.77-1.38Z"/><path class="cls-3" d="M422.57,175.16c15.82-.53,31.65-.52,47.48-.09-15.82,1.05-31.65,1.27-47.48.09Z"/><path class="cls-1" d="M318.35,369.32c-15.65.92-31.28.44-46.92-.19-16.29-.66-28.95-12.88-29.37-29.25-.37-14.47-.25-28.96-.16-43.44.06-8.45,9.64-18.86,19.62-21.45,5.98-1.55,12.17-1.89,18.31-1.86,29.62.15,59.24-.89,88.85.79,14.41.82,26.01,12.3,26.2,26.79.16,12.48.03,24.97-.04,37.45-.08,13.76-11.84,31.52-30.57,31.21-15.3-.26-30.62-.05-45.92-.05ZM318.51,290.98c-15.97,0-31.95-.17-47.92.08-6.95.11-10.87,4.19-10.95,10.84-.13,11.14.37,22.3.01,33.43-.38,11.99,6.82,17.41,17.5,17.46,29.29.13,58.59.2,87.88.15,6.88-.01,12.2-5.63,12.17-12.48-.06-12.48-.18-24.96-.41-37.44-.15-8.22-4.03-12.14-12.37-12.2-15.31-.11-30.6-1.23-45.92.16Z"/><path class="cls-1" d="M326.06,204.76c7.32.06,14.65.21,21.97.15,10.83-.09,24.48,9.08,26.58,22,2.04,12.54-10.01,28.28-22.61,28.26-20.31-.04-40.61-.12-60.92-.34-13.95-.15-24.23-7.51-27.27-18.97-3.69-13.88,4.94-24.83,18.62-29.9,1.68-.62,3.55-.74,5.34-1.09,11.44.35,22.89.33,34.33-.15.54,0,1.07,0,1.61.01.79,0,1.57.02,2.36.03ZM318.45,238.94c0-.21,0-.41,0-.62,10.15,0,20.29,0,30.44,0,4.26,0,6.87-2.56,8.26-6.1,1.42-3.63-1.56-5.74-3.81-7.91-1.88-1.81-4.18-2.65-6.77-2.68-18.96-.21-37.92-.48-56.88-.58-4.43-.02-9.28,4.88-9.3,8.87-.02,3.95,5.3,8.99,9.62,9.01,9.49.03,18.97.01,28.46.01Z"/><path class="cls-1" d="M209.17,233.16c.04,4.34-3.81,8.79-7.72,8.93-3.93.15-8.36-4.71-8.24-9.02.12-4.06,4.09-8.27,7.81-8.28,4.23,0,8.11,3.98,8.15,8.37Z"/><path class="cls-1" d="M208.94,262.36c.03,4.2-4.43,9.56-7.96,9.55-3.36,0-7.73-5.08-7.86-9.12-.12-4.05,3.85-8.03,7.91-7.94,3.9.09,7.87,3.87,7.9,7.51Z"/><path class="cls-1" d="M208.09,293.33c-.06,3.49-4.27,7.6-7.85,7.68-3.42.07-7.49-4.33-7.37-7.96.13-3.79,3.75-7.35,7.34-7.22,3.93.14,7.94,3.96,7.88,7.49Z"/><path class="cls-3" d="M322.09,204.72c-11.44.48-22.88.5-34.33.15,11.44-.77,22.88-1.61,34.33-.15Z"/><path class="cls-3" d="M326.06,204.76c-.79,0-1.57-.02-2.36-.03.8-.8,1.58-.78,2.36.03Z"/><path class="cls-1" d="M458.16,132.29c5.27.01,9.96,4,10.02,8.49.06,4.88-4.41,9.67-8.9,9.56-4.95-.12-9.46-4.8-9.42-9.77.04-4.38,3.96-8.3,8.3-8.29Z"/><path class="cls-1" d="M167.83,141.67c.02-5.34,4.03-8.98,9.78-8.88,5.28.09,8.71,3.1,8.64,7.57-.08,4.76-4.61,9.79-8.86,9.83-5.37.05-9.58-3.7-9.56-8.51Z"/><path class="cls-5" d="M318.51,290.98c15.32-1.39,30.61-.27,45.92-.16,8.34.06,12.22,3.98,12.37,12.2.23,12.48.35,24.96.41,37.44.03,6.85-5.29,12.47-12.17,12.48-29.29.05-58.59-.02-87.88-.15-10.68-.05-17.88-5.47-17.5-17.46.35-11.13-.15-22.29-.01-33.43.08-6.66,4-10.73,10.95-10.84,15.97-.25,31.94-.08,47.92-.08ZM318.89,303.08v.26c-11.81,0-23.62-.03-35.43.01-5.39.02-9.55,2.97-9.5,6.56.06,3.67,3.94,6.62,9.58,6.67,23.62.2,47.25.26,70.87.34,1.15,0,2.41.01,3.44-.42,3.36-1.41,6.34-3.6,6.03-7.6-.31-3.92-3.57-5.23-7.06-5.75-.82-.12-1.66-.08-2.49-.08-11.81,0-23.62,0-35.44,0ZM318.66,341.15s0-.04,0-.06c12.15,0,24.29.02,36.44,0,4.67-.01,8.69-3.24,8.79-6.96.09-3.2-4-6.33-8.83-6.3-24.29.13-48.57-1.16-72.86,0-4.84.23-7.94,2.94-7.84,6.91.1,3.81,3.13,6.37,7.86,6.38,12.15.05,24.29.02,36.44.02Z"/><path class="cls-5" d="M318.45,238.94c-9.49,0-18.97.02-28.46-.01-4.31-.01-9.64-5.06-9.62-9.01.02-3.98,4.87-8.89,9.3-8.87,18.96.1,37.92.37,56.88.58,2.59.03,4.89.87,6.77,2.68,2.25,2.17,5.23,4.28,3.81,7.91-1.39,3.54-4,6.1-8.26,6.1-10.15,0-20.29,0-30.44,0,0,.21,0,.41,0,.62Z"/><path class="cls-1" d="M318.89,303.08c11.81,0,23.62,0,35.44,0,.83,0,1.68-.04,2.49.08,3.49.52,6.75,1.83,7.06,5.75.32,4-2.66,6.19-6.03,7.6-1.03.43-2.29.42-3.44.42-23.62-.08-47.25-.14-70.87-.34-5.64-.05-9.52-2.99-9.58-6.67-.05-3.59,4.11-6.54,9.5-6.56,11.81-.05,23.62-.01,35.43-.01v-.26Z"/><path class="cls-1" d="M318.66,341.15c-12.15,0-24.29.03-36.44-.02-4.73-.02-7.76-2.58-7.86-6.38-.1-3.97,3-6.68,7.84-6.91,24.29-1.17,48.57.12,72.86,0,4.82-.03,8.92,3.1,8.83,6.3-.11,3.72-4.12,6.94-8.79,6.96-12.15.03-24.29,0-36.44,0,0,.02,0,.04,0,.06Z"/></g></svg>